<svg id="Layer_1" data-name="Layer 1" xmlns="http://www.w3.org/2000/svg" viewBox="0 0 265.16 842.19"><defs><style>.cls-1{fill:#1d1d1b;}.cls-2{fill:#d94626;}</style></defs><path class="cls-1" d="M628.09,87.31a5.58,5.58,0,0,1,5.91,5.9L606.84,415.57c-3.54,41.34-21.25,67.31-42.51,82.66,21.26,15.35,39,41.33,42.51,82.66L634,908a5.58,5.58,0,0,1-5.91,5.91H544.26a5.58,5.58,0,0,1-5.9-5.91L511.2,583.25c-2.37-21.26-1.18-37.78-28.34-37.78H480.5V908a5.58,5.58,0,0,1-5.9,5.91H391.94A5.58,5.58,0,0,1,386,908V93.21a5.58,5.58,0,0,1,5.91-5.9H474.6a5.57,5.57,0,0,1,5.9,5.9V451h2.36c27.16,0,26-16.53,28.34-37.79l27.16-320a5.57,5.57,0,0,1,5.9-5.9Z" transform="translate(-368.84 -71.69)"/><path class="cls-2" d="M610.91,71.69a5.58,5.58,0,0,1,5.91,5.9L589.65,400c-3.53,41.33-21.25,67.31-42.51,82.66,21.26,15.35,39,41.32,42.51,82.65l27.17,327.09a5.58,5.58,0,0,1-5.91,5.9H527.07a5.57,5.57,0,0,1-5.9-5.9L494,567.63c-2.36-21.26-1.18-37.79-28.34-37.79h-2.36V892.35a5.57,5.57,0,0,1-5.9,5.9H374.75a5.58,5.58,0,0,1-5.91-5.9V77.59a5.58,5.58,0,0,1,5.91-5.9h82.66a5.57,5.57,0,0,1,5.9,5.9V435.37h2.36c27.16,0,26-16.52,28.34-37.78l27.16-320a5.57,5.57,0,0,1,5.9-5.9Z" transform="translate(-368.84 -71.69)"/></svg>